<svg fill="#000000" xmlns="http://www.w3.org/2000/svg"  viewBox="0 0 64 64" width="256px" height="256px"><path d="M 16.1875 4 A 1.0001 1.0001 0 0 0 15.359375 4.4375 L 1.1738281 25.310547 A 1.0001 1.0001 0 0 0 1.2578125 26.542969 L 31.257812 59.671875 A 1.0001 1.0001 0 0 0 32.740234 59.671875 L 62.740234 26.671875 A 1.0001 1.0001 0 0 0 62 25 L 52.501953 25 L 58.800781 16.599609 A 1.0001 1.0001 0 0 0 58.740234 15.328125 L 48.740234 4.328125 A 1.0001 1.0001 0 0 0 48 4 L 16.1875 4 z M 16.716797 6 L 47.558594 6 L 49.509766 8.1464844 C 49.210784 8.3194316 49 8.6299884 49 9 L 49 11 C 49 11.552 49.448 12 50 12 C 50.552 12 51 11.552 51 11 L 51 9.7851562 L 56.705078 16.060547 L 50.607422 24.191406 L 43.791016 15.388672 A 1.0001 1.0001 0 0 0 43 15 L 21 15 A 1.0001 1.0001 0 0 0 20.126953 15.511719 L 13.972656 26.511719 A 1.0001 1.0001 0 0 0 14.103516 27.669922 L 31.257812 46.669922 A 1.0001 1.0001 0 0 0 32.736328 46.675781 L 43.736328 34.675781 A 1.0001 1.0001 0 0 0 43 33 L 35.203125 33 L 40.453125 27 L 59.740234 27 L 32.001953 57.511719 L 3.2695312 25.783203 L 14 9.9960938 L 14 11 C 14 11.552 14.448 12 15 12 C 15.552 12 16 11.552 16 11 L 16 9 C 16 8.5595998 15.710085 8.1958062 15.314453 8.0625 L 16.716797 6 z M 20 8 C 19.448 8 19 8.448 19 9 L 19 11 C 19 11.552 19.448 12 20 12 C 20.552 12 21 11.552 21 11 L 21 9 C 21 8.448 20.552 8 20 8 z M 25 8 C 24.448 8 24 8.448 24 9 L 24 11 C 24 11.552 24.448 12 25 12 C 25.552 12 26 11.552 26 11 L 26 9 C 26 8.448 25.552 8 25 8 z M 30 8 C 29.448 8 29 8.448 29 9 L 29 11 C 29 11.552 29.448 12 30 12 C 30.552 12 31 11.552 31 11 L 31 9 C 31 8.448 30.552 8 30 8 z M 35 8 C 34.448 8 34 8.448 34 9 L 34 11 C 34 11.552 34.448 12 35 12 C 35.552 12 36 11.552 36 11 L 36 9 C 36 8.448 35.552 8 35 8 z M 40 8 C 39.448 8 39 8.448 39 9 L 39 11 C 39 11.552 39.448 12 40 12 C 40.552 12 41 11.552 41 11 L 41 9 C 41 8.448 40.552 8 40 8 z M 45 8 C 44.448 8 44 8.448 44 9 L 44 11 C 44 11.552 44.448 12 45 12 C 45.552 12 46 11.552 46 11 L 46 9 C 46 8.448 45.552 8 45 8 z M 21.585938 17 L 42.509766 17 L 48.703125 25 L 40 25 A 1.0001 1.0001 0 0 0 39.248047 25.341797 L 32.248047 33.341797 A 1.0001 1.0001 0 0 0 33 35 L 40.726562 35 L 32.005859 44.513672 L 16.068359 26.861328 L 21.585938 17 z"/></svg>