<svg width="300" height="300" viewBox="0 0 300 300" fill="none" xmlns="http://www.w3.org/2000/svg">
  <path d="M161 188.375C170 193.5 177.919 193.854 186 188.375C197.919 180.294 197.919 159.581 186 151.5C177.919 146.021 169.081 146.021 161 151.5C149.081 159.581 152 183.25 161 188.375ZM145.5 70.5C127 70.5 112 24.5202 89.5 42C77.6254 51.2251 94.3244 85.6756 87.5 92.5C81.0365 98.9635 61.5 85.5 53.5 112C45.5 138.5 74.5 143.25 74.5 154C74.5 164.751 36.6441 162.082 39.5 185.5C42 206 86.5365 194.537 93 201C100.5 213.5 52 251.495 80 263.5C103 273.362 118 222.5 141 222.5C151.261 222.5 156.5 271.5 182.5 268C202.988 265.242 192.5 222.5 205.5 213.5C218.5 204.5 267.5 235 279.5 213.5C292.936 189.427 235.5 171 235.5 154C232.5 135.5 282.5 113.5 267.5 87.5C254.5 70.5 218 96 201.5 92.5C186 84 196 42 175.5 38C157.5 31.5 155.991 70.5 145.5 70.5ZM138 129C129.877 116.815 108.623 116.815 100.5 129C95.0844 137.123 95.0844 145.877 100.5 154C108.623 166.185 129.877 166.185 138 154C143.416 145.877 143.416 137.123 138 129Z" fill="#173CFF" />
</svg>