<svg width="300" height="300" viewBox="0 0 300 300" fill="none" xmlns="http://www.w3.org/2000/svg">
  <path d="M161 188.375C170 193.5 177.919 193.854 186 188.375C197.919 180.294 197.919 159.581 186 151.5C177.919 146.021 169.081 146.021 161 151.5C149.081 159.581 152 183.25 161 188.375ZM141.5 59.5C131.26 59.5 117.936 45.0628 100.5 52C81.6499 59.5 86.0351 73.5325 78.5 85.5C70 99 57.9171 96.3659 49.5 115C40.4659 135 58.5 138 58.5 154C58.5 170 41 166.5 46.5 185.5C52 204.5 72.5 196 81.6499 209C94.5 218.5 81.6499 233.418 100.5 241.5C122.657 251 121.5 232 141.5 237C154.5 237 154.5 257 180.5 251C203.99 245.579 193.5 230 211 222.5C226.5 212.5 236.5 226 255 206C272.51 187.07 247.5 177 249 154C253 132.5 273.5 120 258.5 94C245.5 77 235 78.5 211 75.5C190.5 68 200 53 177.5 49.5C153.5 43.5 161 59.5 141.5 59.5ZM138 129C129.877 116.815 108.623 116.815 100.5 129C95.0844 137.123 95.0844 145.877 100.5 154C108.623 166.185 129.877 166.185 138 154C143.416 145.877 143.416 137.123 138 129Z" fill="#FF0B0B"/>
</svg>